Synopsis:

One night, during a sailing trip through the Mediterranean, Sandro, the only son of a wealthy Italian entrepreneur, falls overboard. Although given up for dead, Sandro, instead, has been rescued by a fishing boat carrying illegal immigrants to Italian shores. Thus begins an adventuresome return to Italy, at the end of which nothing will ever be the same.

120 min - Adventure|Drama - 13 May 2005 (Italy)



Release (1CD): Quando.sei.nato.non.puoi.piu.nasconderti.xvid.ita.mp3:

Format                                   : AVI
Format/Info                              : Audio Video Interleave
File size                                : 700 MiB
Duration                                 : 1h 55mn
Overall bit rate mode                    : Variable
Overall bit rate                         : 847 Kbps
Writing application                      : VirtualDubMod 1.5.10.1 (build 2439/release)
Writing library                          : VirtualDubMod build 2439/release

Video
ID                                       : 0
Format                                   : MPEG-4 Visual
Format profile                           : Advanced Simple@L5
Format settings, BVOP                    : 2
Format settings, QPel                    : No
Format settings, GMC                     : No warppoints
Format settings, Matrix                  : Default (H.263)
Muxing mode                              : Packed bitstream
Codec ID                                 : XVID
Codec ID/Hint                            : XviD
Duration                                 : 1h 55mn
Bit rate                                 : 729 Kbps
Width                                    : 640 pixels
Height                                   : 272 pixels
Display aspect ratio                     : 2.35:1
Frame rate                               : 25.000 fps
Color space                              : YUV
Chroma subsampling                       : 4:2:0
Bit depth                                : 8 bits
Scan type                                : Progressive
Compression mode                         : Lossy
Bits/(Pixel*Frame)                       : 0.167
Stream size                              : 603 MiB (86%)
Writing library                          : XviD 1.0.3 (UTC 2004-12-20)

Audio
ID                                       : 1
Format                                   : MPEG Audio
Format version                           : Version 1
Format profile                           : Layer 3
Mode                                     : Joint stereo
Codec ID                                 : 55
Codec ID/Hint                            : MP3
Duration                                 : 1h 55mn
Bit rate mode                            : Variable
Bit rate                                 : 103 Kbps
Channel(s)                               : 2 channels
Sampling rate                            : 48.0 KHz
Compression mode                         : Lossy
Stream size                              : 86.7 MiB (12%)
Alignment                                : Aligned on interleaves
Interleave, duration                     : 24 ms (0.60 video frame)
Interleave, preload duration             : 179 ms
Writing library                          : LAME3.96 
Encoding settings                        : -m j -V 4 -q 2 -lowpass 15.3 --abr 103
